<?xml version="1.0" encoding="UTF-8"?>
<svg xmlns="http://www.w3.org/2000/svg" xmlns:xlink="http://www.w3.org/1999/xlink" viewBox="0 0 48 48" version="1.1" width="480px" height="480px">
<g id="surface1">
<path style=" fill:#FFB74D;" d="M 12.761719 24 C 12.601563 24 12.441406 23.976563 12.285156 23.921875 L 6.023438 21.925781 C 5.238281 21.660156 4.816406 20.8125 5.078125 20.027344 C 5.339844 19.242188 6.191406 18.816406 6.976563 19.078125 L 12 20.664063 L 15.15625 13.832031 C 15.382813 13.382813 15.816406 13.074219 16.3125 13.011719 L 24.3125 12.011719 C 24.777344 11.953125 25.234375 12.113281 25.558594 12.441406 L 29.589844 16.472656 L 33.539063 12.347656 C 34.175781 11.816406 35.121094 11.902344 35.652344 12.539063 C 36.179688 13.175781 36.09375 14.121094 35.460938 14.652344 L 30.460938 19.652344 C 29.863281 20.148438 28.988281 20.113281 28.4375 19.5625 L 23 15 L 17 18 L 14.101563 23.171875 C 13.84375 23.691406 13.3125 24 12.761719 24 Z "/>
<path style=" fill:#BA68C8;" d="M 24.3125 12.011719 L 16.3125 13.011719 C 15.816406 13.074219 15.382813 13.382813 15.15625 13.828125 L 13.855469 16.652344 L 17 18 L 25 17 L 27.363281 14.242188 L 25.5625 12.441406 C 25.234375 12.113281 24.777344 11.953125 24.3125 12.011719 Z "/>
<path style=" fill:#BA68C8;" d="M 21 31 C 18.789063 31 17 31.207031 17 29 L 17 15 C 17 12.789063 18.789063 14 21 14 C 23.210938 14 25 12.789063 25 15 L 25 28.0625 C 25 30.269531 23.210938 31 21 31 Z "/>
<path style=" fill:#FFB74D;" d="M 19 3 C 21.210938 3 23 4.789063 23 7 C 23 9.207031 21.210938 11 19 11 C 16.789063 11 15 9.207031 15 7 C 15 4.789063 16.789063 3 19 3 "/>
<path style=" fill:#FF754C;" d="M 37 20 C 36 20 36 21 36 21 L 36 27.269531 C 36 27.269531 38 30.175781 38 29.042969 C 38 29.042969 38 24.152344 38 23.667969 C 38 23.183594 38.320313 23.019531 38.644531 23.019531 C 41 23.019531 41.921875 25.007813 41.921875 25.007813 C 41.921875 25.007813 43 20 37 20 Z "/>
<path style=" fill:#FF754C;" d="M 38.019531 28.980469 C 38.019531 27.875 36.902344 26.976563 35.519531 26.976563 C 34.140625 26.976563 33.019531 27.875 33.019531 28.980469 C 33.019531 30.085938 34.140625 30.980469 35.519531 30.980469 C 36.902344 30.980469 38.019531 30.085938 38.019531 28.980469 Z "/>
<path style=" fill:#D2CCC9;" d="M 29.265625 41.839844 L 24.074219 35.460938 L 24.917969 28.824219 C 24.921875 28.820313 24.921875 28.816406 24.921875 28.8125 L 24.988281 28.28125 C 24.992188 28.25 24.988281 28.207031 24.988281 28.171875 C 24.988281 28.132813 25 28.101563 25 28.0625 L 25 27 L 17 27 L 17 26.992188 L 14.117188 35.027344 C 13.832031 35.539063 13.789063 36.152344 13.992188 36.703125 L 16.992188 44.703125 C 17.296875 45.503906 18.058594 46 18.867188 46 C 19.097656 46 19.335938 45.957031 19.566406 45.871094 C 20.601563 45.484375 21.128906 44.332031 20.738281 43.296875 L 18.0625 36.164063 L 20 32 L 20.011719 35.777344 C 19.957031 36.269531 20.085938 36.761719 20.371094 37.160156 L 26.011719 44.160156 C 26.402344 44.707031 27.015625 45 27.640625 45 C 28.042969 45 28.449219 44.878906 28.800781 44.628906 C 29.699219 43.984375 29.90625 42.734375 29.265625 41.839844 Z "/>
<path style=" fill:#B2AEAD;" d="M 20 30 L 17 26.992188 L 14.117188 35.027344 C 13.832031 35.539063 13.789063 36.152344 13.992188 36.703125 L 16.992188 44.703125 C 17.296875 45.503906 18.058594 46 18.867188 46 C 19.097656 46 19.335938 45.957031 19.566406 45.871094 C 20.601563 45.484375 21.128906 44.332031 20.738281 43.296875 L 18.0625 36.164063 L 20 32 Z "/>
<path style=" fill:#AB47BC;" d="M 17 18 L 19 19 L 19 27 L 17 27 Z "/>
</g>
</svg>
