<?xml version="1.0" encoding="UTF-8"?>
<svg xmlns="http://www.w3.org/2000/svg" xmlns:xlink="http://www.w3.org/1999/xlink" viewBox="0 0 48 48" version="1.1" width="480px" height="480px">
<g id="surface1">
<path style=" fill:#546E7A;" d="M 4 28 L 4 8 C 4 5.800781 5.800781 4 8 4 L 36 4 C 38.199219 4 40 5.800781 40 8 L 40 28 C 40 30.199219 38.199219 32 36 32 L 8 32 C 5.800781 32 4 30.199219 4 28 Z "/>
<path style=" fill:#BBDEFB;" d="M 36 7 L 8 7 C 7.398438 7 7 7.398438 7 8 L 7 28 C 7 28.601563 7.398438 29 8 29 L 36 29 C 36.601563 29 37 28.601563 37 28 L 37 8 C 37 7.398438 36.601563 7 36 7 Z "/>
<path style=" fill:#37474F;" d="M 38 33 L 6 33 C 3.800781 33 2 31.199219 2 29 L 42 29 C 42 31.199219 40.199219 33 38 33 Z "/>
<path style=" fill:#E38939;" d="M 24 40 L 24 16 C 24 13.800781 25.800781 12 28 12 L 40 12 C 42.199219 12 44 13.800781 44 16 L 44 40 C 44 42.199219 42.199219 44 40 44 L 28 44 C 25.800781 44 24 42.199219 24 40 Z "/>
<path style=" fill:#FFF3E0;" d="M 40 15 L 28 15 C 27.398438 15 27 15.398438 27 16 L 27 38 C 27 38.601563 27.398438 39 28 39 L 40 39 C 40.601563 39 41 38.601563 41 38 L 41 16 C 41 15.398438 40.601563 15 40 15 Z "/>
<path style=" fill:#A6642A;" d="M 35.5 41.5 C 35.5 42.328125 34.828125 43 34 43 C 33.171875 43 32.5 42.328125 32.5 41.5 C 32.5 40.671875 33.171875 40 34 40 C 34.828125 40 35.5 40.671875 35.5 41.5 Z "/>
</g>
</svg>
