<svg width="210" height="210" viewBox="0 0 210 210" fill="none" xmlns="http://www.w3.org/2000/svg">
<path fill-rule="evenodd" clip-rule="evenodd" d="M0 105C0 46.8457 46.8457 0 105 0C163.149 0 210 46.8457 210 105C210 163.154 163.149 210 105 210C46.8457 210 0 163.154 0 105ZM141.062 155.521C142.595 156.292 144.133 157.054 145.667 157.054C148.732 157.054 151.804 154.759 152.57 151.683C152.57 147.85 151.032 146.312 148.732 144.785C131.854 134.794 111.904 129.434 90.4155 129.434C77.3745 129.434 65.0947 130.961 52.8202 134.038C49.749 134.794 47.4495 137.104 47.4495 140.936C47.4495 144.002 49.749 147.079 53.5868 147.079C53.9042 147.079 54.4857 146.947 55.1668 146.793C56.1302 146.575 57.293 146.312 58.191 146.312C68.166 144.008 78.9075 142.48 89.6543 142.48C108.832 142.48 126.483 147.084 141.062 155.521ZM151.037 129.434C152.576 130.205 154.109 130.961 156.408 130.961C161.012 130.961 164.083 127.129 164.083 122.519C164.083 119.453 162.545 116.377 159.479 114.849C139.529 102.58 114.208 96.4372 88.116 96.4372C72.0037 96.4372 60.4905 98.742 48.9825 101.808C45.15 103.336 42.8452 105.641 42.8452 110.245C42.8452 114.083 45.9165 117.915 50.5207 117.915C52.0537 117.915 52.8202 117.915 55.125 117.159C63.567 114.849 75.075 113.311 87.3548 113.311C112.67 113.311 134.93 119.459 151.037 129.434ZM165.129 99.4486C166.253 99.9202 167.112 100.28 168.688 100.28C174.053 100.28 177.896 96.4372 178.658 91.0665C178.658 86.4622 176.358 83.3963 173.292 81.858C150.271 68.817 119.579 62.6745 90.4207 62.6745C72.7702 62.6745 57.4245 64.2128 42.8452 68.817C39.0127 69.5888 35.9415 72.6547 35.9415 78.0255C35.9415 83.4015 39.7792 88.0005 45.15 87.234C46.4149 87.234 47.4479 87.0021 48.3774 86.7934C49.1377 86.6227 49.8287 86.4675 50.5207 86.4675C62.7952 83.4015 76.608 81.8633 90.4207 81.8633C117.28 81.8633 144.9 88.0058 163.317 98.7525C164.04 98.992 164.613 99.2321 165.129 99.4486Z" fill="white"/>
</svg>
