<?xml version="1.0"?>
<svg xmlns="http://www.w3.org/2000/svg" xmlns:xlink="http://www.w3.org/1999/xlink" version="1.1" viewBox="0 0 252 252" width="240px" height="240px"><g fill="none" fill-rule="nonzero" stroke="none" stroke-width="1" stroke-linecap="butt" stroke-linejoin="miter" stroke-miterlimit="10" stroke-dasharray="" stroke-dashoffset="0" font-family="none" font-weight="none" font-size="none" text-anchor="none" style="mix-blend-mode: normal"><path d="M0,252v-252h252v252z" fill="none"/><g id="Layer_1"><path d="M126.00525,21c-58.15425,0 -105,46.84575 -105,105c0,58.15425 46.84575,105 105,105c58.149,0 105,-46.84575 105,-105c0,-58.15425 -46.851,-105 -105,-105z" fill="#8bc34a"/><path d="M166.67175,178.05375c-1.533,0 -3.07125,-0.76125 -4.60425,-1.533c-14.57925,-8.43675 -32.22975,-13.041 -51.408,-13.041c-10.74675,0 -21.48825,1.52775 -31.46325,3.8325c-1.533,0 -3.83775,0.7665 -4.60425,0.7665c-3.83775,0 -6.13725,-3.0765 -6.13725,-6.1425c0,-3.8325 2.2995,-6.1425 5.37075,-6.8985c12.2745,-3.0765 24.55425,-4.60425 37.59525,-4.60425c21.48825,0 41.43825,5.36025 58.317,15.351c2.2995,1.52775 3.83775,3.066 3.83775,6.8985c-0.7665,3.0765 -3.83775,5.37075 -6.90375,5.37075zM177.41325,151.96125c-2.2995,0 -3.8325,-0.756 -5.37075,-1.52775c-16.107,-9.975 -38.367,-16.12275 -63.6825,-16.12275c-12.27975,0 -23.78775,1.53825 -32.22975,3.84825c-2.30475,0.756 -3.07125,0.756 -4.60425,0.756c-4.60425,0 -7.6755,-3.8325 -7.6755,-7.67025c0,-4.60425 2.30475,-6.909 6.13725,-8.43675c11.508,-3.066 23.02125,-5.37075 39.1335,-5.37075c26.0925,0 51.41325,6.1425 71.36325,18.41175c3.066,1.52775 4.60425,4.60425 4.60425,7.67025c0,4.6095 -3.07125,8.442 -7.6755,8.442zM189.693,121.28025c-2.2995,0 -3.07125,-0.7665 -5.37075,-1.52775c-18.417,-10.74675 -46.03725,-16.88925 -72.89625,-16.88925c-13.81275,0 -27.6255,1.53825 -39.9,4.60425c-1.53825,0 -3.07125,0.7665 -5.37075,0.7665c-5.37075,0.7665 -9.2085,-3.8325 -9.2085,-9.2085c0,-5.37075 3.07125,-8.43675 6.90375,-9.2085c14.57925,-4.60425 29.925,-6.1425 47.5755,-6.1425c29.1585,0 59.85,6.1425 82.87125,19.1835c3.066,1.53825 5.3655,4.60425 5.3655,9.2085c-0.76125,5.37075 -4.60425,9.21375 -9.96975,9.21375z" fill="#000000"/></g></g></svg>
